# xmcd
#
# Track frame offsets:
#	150
#	11395
#	27302
#	47272
#	75875
#	95290
#	119862
#	143830
#	158577
#	183620
#	225542
#	240142
#	258045
#
# Disc length: 3600 seconds
#
# Revision: 1
# Processed by: cddbd v1.4PL0 Copyright (c) Steve Scherf et al.
# Submitted via: audiograbber 1.81.02
#
DISCID=8a0e0e0d
DTITLE=Andy J. Forest - Letter From Hell
DYEAR=1998
DGENRE=Blues
TTITLE0=I Love You Worse
TTITLE1=Vacances d'Enfer
TTITLE2=Déjà Blues
TTITLE3=Ode to Muddy
TTITLE4=Still Hummin'
TTITLE5=Lies Have Long Legs
TTITLE6=Mardi Gras Baby
TTITLE7=Tongue in Groove
TTITLE8=Letter From Hell
TTITLE9=If I Can Help Somebody
TTITLE10=Confide
TTITLE11=Mud Bellied Catfish Medley
TTITLE12=Audio liner notes for the visually impaired
EXTD=
EXTT0=
EXTT1=
EXTT2=
EXTT3=
EXTT4=
EXTT5=
EXTT6=
EXTT7=
EXTT8=
EXTT9=
EXTT10=
EXTT11=
EXTT12=
PLAYORDER=
